<?xml version="1.0" encoding="iso-8859-1"?>
<!-- Generator: Adobe Illustrator 19.0.0, SVG Export Plug-In . SVG Version: 6.00 Build 0)  -->
<svg xmlns="http://www.w3.org/2000/svg" xmlns:xlink="http://www.w3.org/1999/xlink" version="1.1" id="Capa_1" x="0px" y="0px" viewBox="0 0 512 512" style="enable-background:new 0 0 512 512;" xml:space="preserve" width="512px" height="512px">
<g>
	<g>
		<g>
			<path d="M59.733,34.133H51.2c-4.713,0-8.533,3.82-8.533,8.533S46.487,51.2,51.2,51.2h8.533c4.713,0,8.533-3.82,8.533-8.533     S64.446,34.133,59.733,34.133z" fill="#FFFFFF"/>
			<path d="M102.4,34.133h-8.533c-4.713,0-8.533,3.82-8.533,8.533s3.821,8.533,8.533,8.533h8.533c4.713,0,8.533-3.82,8.533-8.533     S107.113,34.133,102.4,34.133z" fill="#FFFFFF"/>
			<path d="M145.067,34.133h-8.533c-4.713,0-8.533,3.82-8.533,8.533s3.82,8.533,8.533,8.533h8.533c4.713,0,8.533-3.82,8.533-8.533     S149.779,34.133,145.067,34.133z" fill="#FFFFFF"/>
			<path d="M409.6,34.133H179.2c-4.713,0-8.533,3.82-8.533,8.533s3.82,8.533,8.533,8.533h230.4c4.713,0,8.533-3.82,8.533-8.533     S414.313,34.133,409.6,34.133z" fill="#FFFFFF"/>
			<path d="M512,307.2c0-9.426-7.641-17.067-17.067-17.067H460.8V42.667C460.772,19.114,441.686,0.028,418.133,0H42.667     C19.114,0.028,0.028,19.114,0,42.667V384c0.028,23.552,19.114,42.638,42.667,42.667h294.502     c15.624,35.726,42.578,65.313,76.698,84.19c2.64,1.524,5.893,1.524,8.533,0c78.251-45.227,88.166-116.053,89.412-134.477     c0.08-0.301,0.142-0.605,0.188-0.913c0-0.171-0.085-0.307-0.094-0.478c0.085-1.63,0.094-2.662,0.094-2.995V307.2z M17.067,42.667     c0-14.138,11.462-25.6,25.6-25.6h375.467c14.138,0,25.6,11.462,25.6,25.6v25.6H17.067V42.667z M51.2,409.6l0-9.387     c-0.023-13.573,7.506-26.032,19.533-32.324l49.271-25.89c9.862-5.668,16.109-16.016,16.529-27.383v-21.009     c-0.005-1.571-0.438-3.112-1.254-4.454c-6.988-12.359-12.161-25.66-15.36-39.492c-0.628-2.073-1.894-3.894-3.618-5.205     c-2.246-2.622-4.059-5.586-5.367-8.781V217.6l7.04-10.24c0.979-1.429,1.5-3.123,1.493-4.855v-33.28     c-0.001-0.354-0.024-0.707-0.068-1.058c-0.641-9.108,2.274-18.11,8.132-25.114c8.405-9.472,22.903-14.293,43.051-14.345     c20.147-0.051,34.714,4.881,43.145,14.362c5.871,6.98,8.813,15.961,8.209,25.062c-0.044,0.362-0.067,0.727-0.068,1.092v33.28     c-0.002,1.724,0.519,3.408,1.493,4.83l7.04,10.266v18.261c-1.115,3.082-2.72,5.963-4.753,8.533     c-1.863,1.207-3.182,3.093-3.678,5.257c-3.226,13.842-8.559,27.107-15.812,39.33c-0.883,1.378-1.354,2.98-1.357,4.616v21.009     c-0.002,11.471,6.371,21.994,16.538,27.307l49.263,25.89c12.054,6.306,19.587,18.806,19.533,32.41l0,9.387H51.2z      M324.361,374.989c0,0.171-0.094,0.307-0.094,0.478c0.045,0.308,0.108,0.612,0.188,0.913c0.886,11.28,3.045,22.425,6.434,33.22     H307.2v-9.387c0.03-19.918-11.017-38.2-28.663-47.437l-49.271-25.95c-4.543-2.38-7.392-7.083-7.398-12.211v-18.628     c7.153-12.464,12.565-25.849,16.085-39.782c4.001-4.665,7.061-10.061,9.011-15.889c0.333-0.925,0.503-1.901,0.503-2.884v-22.468     c0.002-1.724-0.519-3.408-1.493-4.83l-7.04-10.266v-30.174c1.025-13.68-3.371-27.215-12.237-37.683     c-11.785-13.397-30.652-20.224-56.115-20.326c-25.464-0.102-44.279,6.904-56.038,20.335c-8.838,10.48-13.2,24.015-12.143,37.683     v30.165l-7.04,10.24c-0.974,1.422-1.495,3.106-1.493,4.83v22.468c-0.001,1.106,0.214,2.201,0.631,3.226     c2.213,5.683,5.388,10.943,9.387,15.548c3.471,13.851,8.707,27.199,15.582,39.714v18.722c-0.435,5.008-3.167,9.531-7.398,12.245     l-49.271,25.882c-17.657,9.243-28.706,27.541-28.663,47.471v7.851C23.93,404.457,17.097,394.823,17.067,384V85.333h426.667v204.8     h-102.4c-9.426,0-17.067,7.641-17.067,17.067v64.794C324.267,372.327,324.267,373.359,324.361,374.989z M341.333,307.2H409.6     v59.733h-68.267V307.2z M418.133,493.534c-30.333-17.832-53.91-45.203-67.055-77.841c-0.121-0.467-0.287-0.921-0.495-1.357     c-3.8-9.787-6.521-19.959-8.115-30.336H409.6v68.267c0,4.713,3.82,8.533,8.533,8.533s8.533-3.821,8.533-8.533V384h67.132     C486.309,430.023,458.527,470.241,418.133,493.534z M494.933,366.933h-68.267V307.2h68.267V366.933z" fill="#FFFFFF"/>
			<path d="M290.133,136.533h128c4.713,0,8.533-3.82,8.533-8.533s-3.82-8.533-8.533-8.533h-128c-4.713,0-8.533,3.82-8.533,8.533     S285.421,136.533,290.133,136.533z" fill="#FFFFFF"/>
			<path d="M290.133,170.667h128c4.713,0,8.533-3.82,8.533-8.533s-3.82-8.533-8.533-8.533h-128c-4.713,0-8.533,3.82-8.533,8.533     S285.421,170.667,290.133,170.667z" fill="#FFFFFF"/>
			<path d="M290.133,204.8h128c4.713,0,8.533-3.82,8.533-8.533s-3.82-8.533-8.533-8.533h-128c-4.713,0-8.533,3.82-8.533,8.533     S285.421,204.8,290.133,204.8z" fill="#FFFFFF"/>
			<path d="M358.4,230.4c0-4.713-3.82-8.533-8.533-8.533h-59.733c-4.713,0-8.533,3.82-8.533,8.533s3.82,8.533,8.533,8.533h59.733     C354.58,238.933,358.4,235.113,358.4,230.4z" fill="#FFFFFF"/>
		</g>
	</g>
</g>
<g>
</g>
<g>
</g>
<g>
</g>
<g>
</g>
<g>
</g>
<g>
</g>
<g>
</g>
<g>
</g>
<g>
</g>
<g>
</g>
<g>
</g>
<g>
</g>
<g>
</g>
<g>
</g>
<g>
</g>
</svg>
